<svg width="400" height="400" viewBox="0 0 376 272" fill="none" xmlns="http://www.w3.org/2000/svg">
<path d="M290.67 148.455L292.239 151.131L293.807 148.455H294.966L292.852 151.727L294.966 155H293.807L292.239 152.46L290.67 155H289.511L291.591 151.727L289.511 148.455H290.67Z" fill="black"/>
<path d="M199.568 59.4545C199.398 59.4545 199.246 59.4403 199.112 59.4119C198.979 59.3864 198.886 59.3608 198.835 59.3352L199.091 58.4489C199.335 58.5114 199.551 58.5341 199.739 58.517C199.926 58.5 200.092 58.4162 200.237 58.2656C200.385 58.1179 200.52 57.8778 200.642 57.5455L200.83 57.0341L198.409 50.4545H199.5L201.307 55.6705H201.375L203.182 50.4545H204.273L201.494 57.9545C201.369 58.2926 201.214 58.5724 201.03 58.794C200.845 59.0185 200.631 59.1847 200.386 59.2926C200.145 59.4006 199.872 59.4545 199.568 59.4545Z" fill="black"/>
<path d="M189 103L268 142H189V103Z" fill="#4373F6"/>
<path d="M189 144H110V183H189V144Z" fill="#4373F6"/>
<path d="M188 138C188 144.667 188 147.444 188 148" stroke="white"/>
<path d="M110 142C110 98.9217 144.474 64 187 64V142H110Z" fill="#4373F6"/>
<path d="M148 138C148 144.667 148 147.444 148 148" stroke="white"/>
<path d="M109.5 138C109.5 144.667 109.5 147.444 109.5 148" stroke="white"/>
<path d="M228 138C228 144.667 228 147.444 228 148" stroke="white"/>
<path d="M188 138C188 144.667 188 147.444 188 148" stroke="white"/>
<path d="M268 138C268 144.667 268 147.444 268 148" stroke="white"/>
<path d="M228 138C228 144.667 228 147.444 228 148" stroke="white"/>
<path d="M184 143C190.128 143 193.22 143 194 143" stroke="white"/>
<path d="M183 102.5C189.128 102.5 192.22 102.5 193 102.5" stroke="white"/>
<path d="M183 63.5C189.128 63.5 192.22 63.5 193 63.5" stroke="white"/>
<path d="M184 143C190.128 143 193.22 143 194 143" stroke="white"/>
<path d="M183 223C189.128 223 192.22 223 193 223" stroke="white"/>
<path d="M188.707 42.2929C188.317 41.9024 187.683 41.9024 187.293 42.2929L180.929 48.6569C180.538 49.0474 180.538 49.6805 180.929 50.0711C181.319 50.4616 181.953 50.4616 182.343 50.0711L188 44.4142L193.657 50.0711C194.047 50.4616 194.681 50.4616 195.071 50.0711C195.462 49.6805 195.462 49.0474 195.071 48.6569L188.707 42.2929ZM189 243V43H187V243H189Z" fill="white"/>
<path d="M288.707 143.707C289.098 143.317 289.098 142.683 288.707 142.293L282.343 135.929C281.953 135.538 281.319 135.538 280.929 135.929C280.538 136.319 280.538 136.953 280.929 137.343L286.586 143L280.929 148.657C280.538 149.047 280.538 149.681 280.929 150.071C281.319 150.462 281.953 150.462 282.343 150.071L288.707 143.707ZM88 144H288V142H88V144Z" fill="white"/>
<path d="M183 183.5C189.128 183.5 192.22 183.5 193 183.5" stroke="white"/>
</svg>
